<?xml version="1.0" encoding="UTF-8"?>
<svg version="1.1" xmlns="http://www.w3.org/2000/svg" width="679" height="636" viewBox="0 0 679 636">
  <style>
    /* Warna default untuk mode terang */
    .adaptive-path { fill: #211f20; }
    .accent-path { fill: #a3a2a3; }
    
    /* Warna otomatis saat mode gelap */
    @media (prefers-color-scheme: dark) {
      .adaptive-path { fill: #f0f0f0; }
      .accent-path { fill: #888888; }
    }
  </style>
  
  <g transform="translate(76.5625,11.5)">
    <path class="adaptive-path" d="M0 0 C1.47997425 0.96950529 2.96043073 1.9382749 4.44140625 2.90625 C5.47418701 3.58494141 5.47418701 3.58494141 6.52783203 4.27734375 C8.1411133 5.31023976 9.79899193 6.27297607 11.46484375 7.21875 C12.11582031 7.6415625 12.76679687 8.064375 13.4375 8.5 C13.4375 9.16 13.4375 9.82 13.4375 10.5 C14.02974365 10.62294434 14.6219873 10.74588867 15.23217773 10.87255859 C18.74185136 11.87110406 21.52864893 14.07232571 24.5 16.125 C25.83513643 17.03503056 27.17108158 17.94387569 28.5078125 18.8515625 C29.16813477 19.30047852 29.82845703 19.74939453 30.50878906 20.21191406 C34.12342667 22.62594292 37.84084505 24.87378681 41.55859375 27.125 C42.48865234 27.805625 42.48865234 27.805625 43.4375 28.5 C43.4375 29.16 43.4375 29.82 43.4375 30.5 C44.01113281 30.61029541 44.58476563 30.72059082 45.17578125 30.83422852 C47.71928536 31.58294783 49.44020846 32.6557715 51.625 34.15234375 C52.79675781 34.94608398 52.79675781 34.94608398 53.9921875 35.75585938 C55.20261719 36.58827148 55.20261719 36.58827148 56.4375 37.4375 C58.04024792 38.53202833 59.64436797 39.62455071 61.25 40.71484375 C61.95769531 41.20073975 62.66539062 41.68663574 63.39453125 42.18725586 C65.35592466 43.44758239 67.33332037 44.50021914 69.4375 45.5 C69.4375 46.16 69.4375 46.82 69.4375 47.5 C70.52756348 47.9007373 70.52756348 47.9007373 71.63964844 48.30957031 C74.41885435 49.49206665 76.70381002 50.85875007 79.203125 52.546875 C80.09386719 53.145 80.98460937 53.743125 81.90234375 54.359375 C82.82144531 54.98328125 83.74054688 55.6071875 84.6875 56.25 C85.59113281 56.8584375 86.49476563 57.466875 87.42578125 58.09375 C89.22554217 59.30567534 91.0237403 60.51992493 92.8203125 61.73657227 C96.0305681 63.89960176 99.2644485 66.02580272 102.50488281 68.14331055 C104.4375 69.5 104.4375 69.5 106.22167969 71.08129883 C107.94483511 72.56883212 109.31584348 73.66735972 111.4375 74.5 C113.49608273 74.19059794 113.49608273 74.19059794 115.59375 73.30859375 C116.38587891 73.01654053 117.17800781 72.7244873 117.99414062 72.42358398 C118.80044922 72.11880127 119.60675781 71.81401855 120.4375 71.5 C121.93508442 70.99281078 123.43506556 70.49263653 124.9375 70 C125.68 69.7525 126.4225 69.505 127.1875 69.25 C133.9375 67 133.9375 67 136.19091797 66.25219727 C137.68222911 65.75287868 139.17090269 65.24560851 140.65673828 64.73022461 C146.1446165 62.84335268 151.66068584 61.37189115 157.3125 60.0625 C158.23683838 59.84787109 159.16117676 59.63324219 160.11352539 59.41210938 C162.00464072 58.97556113 163.89632104 58.54145276 165.78857422 58.10986328 C168.09428485 57.57901857 170.39292322 57.02589079 172.69140625 56.46484375 C196.50389322 50.85463081 221.98139855 47.67309289 246.4375 47.5 C247.80566554 47.48631237 249.17382949 47.47246488 250.54199219 47.45849609 C290.91672461 47.08225271 332.3873671 48.08011267 371.36621094 59.8828125 C373.93678127 60.64877216 376.51877698 61.3700628 379.1015625 62.09375 C389.67879575 65.08407175 400.026559 68.24581677 410.1953125 72.43359375 C413.58335676 73.54797457 415.90302874 73.92607325 419.4375 73.5 C421.79172611 72.32927142 421.79172611 72.32927142 423.9375 70.5625 C427.86292533 67.63744387 431.85627759 64.91535248 436 62.3125 C441.46954094 58.84397376 446.78510687 55.19125487 452.0625 51.4375 C457.10018674 47.85827007 462.13882766 44.28635404 467.25 40.8125 C468.16394531 40.18988281 469.07789063 39.56726562 470.01953125 38.92578125 C472.22564728 37.62492123 473.9340277 36.93766998 476.4375 36.5 C476.4375 35.84 476.4375 35.18 476.4375 34.5 C478.40981191 33.0978095 480.37541362 31.82116897 482.4375 30.5625 C488.80851336 26.59035636 494.99253682 22.40218335 501.10546875 18.04321289 C502.06259766 17.37213501 502.06259766 17.37213501 503.0390625 16.6875 C503.59932129 16.28917969 504.15958008 15.89085938 504.73681641 15.48046875 C506.61230397 14.39922297 508.32444792 13.92942113 510.4375 13.5 C510.4375 12.84 510.4375 12.18 510.4375 11.5 C512.31640625 10.125 512.31640625 10.125 515 8.5 C518.45108101 6.373171 521.86962902 4.22990174 525.2265625 1.95703125 C525.87294678 1.51939453 526.51933105 1.08175781 527.18530273 0.63085938 C528.44486558 -0.22523117 529.70232165 -1.08443268 530.95727539 -1.94726562 C543.14825355 -10.19444338 554.30122437 -11.5278279 568.8359375 -10.296875 C579.21667315 -8.28204867 588.48617311 -0.9644162 594.4375 7.5 C600.33373861 17.34717088 601.73461254 25.68149804 601.69819641 37.0115509 C601.70202196 38.2732555 601.70584751 39.5349601 601.70978898 40.83489817 C601.72005686 44.32620924 601.71789012 47.81741747 601.71360838 51.30873692 C601.71113852 55.0794371 601.72015929 58.85011269 601.72764587 62.62080383 C601.74039402 70.00871021 601.74218589 77.39658023 601.73984561 84.78449575 C601.73806009 90.80050969 601.73981716 96.81651263 601.74407005 102.83252525 C601.74466524 103.68998273 601.74526043 104.54744022 601.74587366 105.43088126 C601.7470855 107.17322551 601.74829963 108.91556976 601.74951603 110.65791401 C601.76039493 127.00377006 601.75822919 143.3496055 601.75213119 159.69546273 C601.7469787 174.59575577 601.75817257 189.4959831 601.77722941 204.39626316 C601.79668943 219.73088477 601.8048485 235.06547545 601.80110615 250.40010947 C601.79920424 258.99471074 601.80158074 267.58925632 601.81582069 276.18384743 C601.82784102 283.51277154 601.82902304 290.84160584 601.81703053 298.17053143 C601.8112114 301.89832492 601.8098435 305.62595505 601.82203293 309.35373688 C602.03475959 379.33476346 580.73259407 446.42144662 535.4375 500.5 C534.81343262 501.24926758 534.81343262 501.24926758 534.17675781 502.01367188 C530.96183873 505.86972313 527.71398457 509.69614407 524.4375 513.5 C523.77572754 514.26884521 523.77572754 514.26884521 523.10058594 515.05322266 C521.86630394 516.47957642 520.62092839 517.89630808 519.375 519.3125 C518.66214844 520.12332031 517.94929687 520.93414063 517.21484375 521.76953125 C515.4375 523.5 515.4375 523.5 513.4375 523.5 C513.4375 524.16 513.4375 524.82 513.4375 525.5 C511.96875 526.9453125 511.96875 526.9453125 509.9375 528.625 C506.18351375 531.80656991 502.71816602 535.16873345 499.296875 538.703125 C494.33315217 543.5 494.33315217 543.5 491.4375 543.5 C491.4375 544.16 491.4375 544.82 491.4375 545.5 C489.66109 547.05088316 487.88647695 548.46767177 486 549.875 C485.41653809 550.31489258 484.83307617 550.75478516 484.23193359 551.20800781 C482.30784986 552.64892489 480.3740473 554.07588556 478.4375 555.5 C477.80602051 555.96760742 477.17454102 556.43521484 476.52392578 556.91699219 C460.14780483 568.98011196 442.80603031 579.93873947 424.37646484 588.58789062 C422.31233607 589.55887842 420.25957339 590.55164647 418.20703125 591.546875 C388.39480595 605.91275257 357.04262116 615.0407477 324.4375 620.5 C323.47714844 620.66129395 322.51679688 620.82258789 321.52734375 620.98876953 C251.40788275 632.28931549 178.15136581 621.73427315 113.4375 593.5 C112.14924316 592.94094971 112.14924316 592.94094971 110.83496094 592.37060547 C84.4346055 580.79854389 59.22131612 564.88461896 37.41796875 546.04296875 C34.81063696 543.81836456 32.16280705 541.70163893 29.4375 539.625 C26.17235196 537.11836185 23.28057087 534.48886938 20.4375 531.5 C19.1069017 530.16393723 17.77331857 528.83084345 16.4375 527.5 C15.74914062 526.81035156 15.06078125 526.12070312 14.3515625 525.41015625 C12.84803517 523.90969734 11.3324799 522.4212899 9.8125 520.9375 C7.43414684 518.4965586 5.2381995 515.96447895 3.0625 513.34375 C1.81362676 511.92675921 0.49104962 510.57447454 -0.859375 509.25390625 C-4.07383342 505.97906061 -6.94297998 502.51385031 -9.8125 498.9375 C-10.62460938 497.9484668 -10.62460938 497.9484668 -11.453125 496.93945312 C-12.2265625 495.97749023 -12.2265625 495.97749023 -13.015625 494.99609375 C-13.48129883 494.42044678 -13.94697266 493.8447998 -14.42675781 493.25170898 C-15.5625 491.5 -15.5625 491.5 -16.03417969 489.34399414 C-16.29569824 488.43121704 -16.29569824 488.43121704 -16.5625 487.5 C-17.5525 487.17 -18.5425 486.84 -19.5625 486.5 C-21.0703125 484.5234375 -21.0703125 484.5234375 -22.6875 481.875 C-23.29722656 480.88242187 -23.90695313 479.88984375 -24.53515625 478.8671875 C-25.20417969 477.75601562 -25.87320313 476.64484375 -26.5625 475.5 C-27.31081324 474.27320277 -28.05952303 473.04664736 -28.80859375 471.8203125 C-32.70537263 465.41168991 -36.50964545 458.96775067 -40.0390625 452.34765625 C-41.15622865 450.25941491 -42.30087529 448.18581353 -43.4609375 446.12109375 C-48.42050616 437.22191605 -52.29883614 428.13625491 -55.79833984 418.57373047 C-56.46613408 416.76151186 -57.16235914 414.95982112 -57.86328125 413.16015625 C-72.31415035 375.07952726 -74.90215224 335.64168731 -74.82394934 295.33830094 C-74.81930849 291.7761862 -74.8264638 288.21408852 -74.83190918 284.65197754 C-74.84067949 277.72578048 -74.83893897 270.7996274 -74.8330839 263.87342881 C-74.82852431 258.24209393 -74.82797278 252.61077117 -74.83013153 246.97943497 C-74.830438 246.17100813 -74.83074446 245.3625813 -74.83106022 244.52965669 C-74.83169979 242.88641348 -74.83234821 241.24317028 -74.8330054 239.59992708 C-74.83867064 224.29401748 -74.83220775 208.98813207 -74.82140467 193.68222643 C-74.8124418 180.57736422 -74.81405101 167.47253739 -74.82324219 154.36767578 C-74.83395954 139.07999152 -74.83815376 123.79232819 -74.83201766 108.5046407 C-74.83138066 106.87372089 -74.83075191 105.24280107 -74.83013153 103.61188126 C-74.82982298 102.80977101 -74.82951443 102.00766077 -74.82919653 101.18124416 C-74.82747627 95.55395899 -74.83036952 89.92668724 -74.83509064 84.29940414 C-74.84071445 77.44715309 -74.83915026 70.59494784 -74.82852915 63.74270199 C-74.82329734 60.25347212 -74.82117331 56.76431846 -74.82782745 53.27508926 C-74.83331571 49.48416996 -74.82640933 45.69346324 -74.81646729 41.90255737 C-74.82092873 40.81403626 -74.82539017 39.72551515 -74.82998681 38.60400856 C-74.75333545 23.47345185 -71.85258415 11.50475527 -61.34765625 0.21484375 C-43.20321166 -17.21494001 -19.16026003 -12.61732407 0 0 Z M-25.5625 42.5 C-25.58542046 78.78975394 -25.60302569 115.07950661 -25.61356533 151.3692663 C-25.61481594 155.65975176 -25.61611027 159.95023721 -25.61743164 164.24072266 C-25.61769395 165.09483213 -25.61795626 165.9489416 -25.61822652 166.82893318 C-25.62257034 180.63386013 -25.63045078 194.43878289 -25.6396528 208.24370736 C-25.64902521 222.42317996 -25.6545632 236.60265038 -25.65658849 250.78212595 C-25.65795628 259.52199849 -25.66226641 268.26185917 -25.67041647 277.00172806 C-25.67572822 283.00605602 -25.67729428 289.01037791 -25.67600138 295.01470804 C-25.67536489 298.4718032 -25.67629664 301.92887773 -25.68170547 305.38596916 C-25.73472335 332.29434843 -25.73472335 332.29434843 -22.3125 358.9375 C-22.09070068 360.10200684 -21.86890137 361.26651367 -21.64038086 362.46630859 C-19.83080599 371.68740611 -17.53859697 380.59405216 -14.5625 389.5 C-14.13017628 390.85676062 -13.69788519 392.21353164 -13.265625 393.5703125 C-8.13095382 409.24089508 -0.77032368 424.2197214 7.4375 438.5 C8.04722656 439.59570312 8.65695313 440.69140625 9.28515625 441.8203125 C9.91292969 442.93148438 10.54070312 444.04265625 11.1875 445.1875 C11.75984375 446.20199219 12.3321875 447.21648437 12.921875 448.26171875 C13.42203125 449.00035156 13.9221875 449.73898437 14.4375 450.5 C15.0975 450.5 15.7575 450.5 16.4375 450.5 C16.82421875 451.5828125 16.82421875 451.5828125 17.21875 452.6875 C18.50092067 455.6463554 20.01457649 457.91508642 21.9375 460.5 C22.64261719 461.44875 23.34773438 462.3975 24.07421875 463.375 C25.24404297 464.921875 25.24404297 464.921875 26.4375 466.5 C26.86756348 467.06976563 27.29762695 467.63953125 27.74072266 468.2265625 C29.07277114 469.98775656 30.40994882 471.74488872 31.75 473.5 C32.17023438 474.05171875 32.59046875 474.6034375 33.0234375 475.171875 C35.97471215 479.07284189 35.97471215 479.07284189 39.4375 482.5 C40.0975 482.5 40.7575 482.5 41.4375 482.5 C41.70626953 483.09329102 41.97503906 483.68658203 42.25195312 484.29785156 C43.44040732 486.50540033 44.64492389 487.96542882 46.40625 489.734375 C46.97730469 490.30800781 47.54835938 490.88164062 48.13671875 491.47265625 C48.73097656 492.05917969 49.32523437 492.64570313 49.9375 493.25 C50.53175781 493.85199219 51.12601562 494.45398438 51.73828125 495.07421875 C52.30933594 495.64269531 52.88039063 496.21117187 53.46875 496.796875 C54.25088867 497.57562988 54.25088867 497.57562988 55.04882812 498.37011719 C56.39768269 499.71037547 56.39768269 499.71037547 58.4375 499.5 C58.9325 500.985 58.9325 500.985 59.4375 502.5 C62.07291018 504.90995366 62.07291018 504.90995366 65.4375 505.5 C65.9325 506.985 65.9325 506.985 66.4375 508.5 C68.08654856 509.99758865 68.08654856 509.99758865 70.15625 511.390625 C70.91945557 511.93203125 71.68266113 512.4734375 72.46899414 513.03125 C73.28360107 513.5984375 74.09820801 514.165625 74.9375 514.75 C76.59340997 515.92051519 78.24836988 517.09237565 79.90234375 518.265625 C80.69366699 518.82572266 81.48499023 519.38582031 82.30029297 519.96289062 C84.7630447 521.73413633 87.14131016 523.59279462 89.5 525.5 C92.7945945 528.10133041 96.16820595 530.16610732 99.875 532.12890625 C102.39838441 533.47907077 104.87242991 534.90150318 107.34521484 536.34179688 C132.89333766 551.17302538 159.83126859 561.41459902 188.4375 568.5 C189.57703125 568.78746094 190.7165625 569.07492187 191.890625 569.37109375 C242.54196689 581.65213519 300.53359362 580.33195501 350.4375 565.5 C351.98407093 565.06532291 353.53096869 564.63180767 355.078125 564.19921875 C377.28020367 557.88869649 399.09755644 549.02321583 418.875 537.046875 C421.23740656 535.62078811 423.62967144 534.30088749 426.0625 533 C431.1234602 530.20243882 435.74551152 526.86893808 440.4375 523.5 C441.6851923 522.63136626 442.93395766 521.76427253 444.18359375 520.8984375 C445.4766903 519.99497456 446.76965973 519.09132964 448.0625 518.1875 C448.69115967 517.75477783 449.31981934 517.32205566 449.9675293 516.8762207 C451.49389616 515.80066698 452.9710109 514.65586388 454.4375 513.5 C454.4375 512.84 454.4375 512.18 454.4375 511.5 C454.953125 511.273125 455.46875 511.04625 456 510.8125 C459.33297005 509.01782382 462.58453671 507.00034985 465.4375 504.5 C465.4375 503.84 465.4375 503.18 465.4375 502.5 C466.00597656 502.25894531 466.57445312 502.01789063 467.16015625 501.76953125 C469.88538908 500.25031912 471.70440339 498.42581019 473.875 496.1875 C474.66261719 495.38183594 475.45023438 494.57617188 476.26171875 493.74609375 C476.97972656 493.00488281 477.69773437 492.26367188 478.4375 491.5 C481.02320857 488.91429143 483.6061354 486.33885951 486.25 483.8125 C488.66656662 481.78837851 488.66656662 481.78837851 488.4375 479.5 C489.4275 479.17 490.4175 478.84 491.4375 478.5 C493.22016889 476.47410507 494.86895763 474.45497332 496.5 472.3125 C496.98170654 471.68899658 497.46341309 471.06549316 497.9597168 470.4230957 C502.95996922 463.90568316 507.74285713 457.23975185 512.4375 450.5 C513.01371094 449.67757813 513.58992187 448.85515625 514.18359375 448.0078125 C517.45127764 443.23784277 520.27407101 438.30102379 522.9921875 433.19921875 C524.32574144 430.70871666 525.71716606 428.26145665 527.125 425.8125 C528.95659252 422.52144805 530.38250621 419.26782131 531.62890625 415.71875 C532.61966388 413.00014935 533.74558231 410.35141527 534.875 407.6875 C539.14680246 397.46842764 542.51114366 387.18175699 545.4375 376.5 C545.77443166 375.33306266 545.77443166 375.33306266 546.11817002 374.14255083 C551.97079987 353.50942621 553.0331214 332.79358302 552.90176249 311.45756888 C552.88411846 307.84381747 552.8903596 304.23008499 552.89337158 300.61630249 C552.89544617 294.3884723 552.88313903 288.16081266 552.86042023 281.93302536 C552.82759652 272.92926162 552.81746259 263.92557842 552.81246826 254.92176135 C552.80376257 240.30570458 552.77727695 225.68973827 552.73925781 211.07373047 C552.70241421 196.89469854 552.67416331 182.71569137 552.65722656 168.53662109 C552.65617567 167.65930121 552.65512477 166.78198133 552.65404204 165.878076 C552.64882103 161.47582756 552.6437664 157.07357894 552.63879442 152.67133021 C552.59747994 116.28082303 552.52716233 79.89041862 552.4375 43.5 C550.66688037 44.45532997 548.89750518 45.41296666 547.12866211 46.37158203 C546.14320908 46.90461945 545.15775604 47.43765686 544.1424408 47.98684692 C541.25940129 49.59962903 538.62297293 51.3679304 536 53.375 C532.36142679 56.11356304 528.6718619 58.71844139 524.87109375 61.2265625 C518.52531326 65.43431886 512.22789455 69.71002906 505.9375 74 C498.7694173 78.88854336 491.58168106 83.74367993 484.35742188 88.54882812 C479.69405327 91.66501892 475.06630185 94.83279445 470.4375 98 C462.80121772 103.21367557 455.16408033 108.42068814 447.4375 113.5 C446.86032227 113.88414063 446.28314453 114.26828125 445.68847656 114.6640625 C443.81765765 115.90801527 441.9407656 117.14232674 440.0625 118.375 C439.49080078 118.7570459 438.91910156 119.1390918 438.33007812 119.53271484 C430.6171192 124.55337187 423.48117968 125.66866636 414.4375 124.5 C408.51316909 122.93986522 402.80929243 120.6649806 397.08886719 118.4921875 C365.48588785 106.66580554 332.97393453 99.92208516 299.4375 96.5 C298.73318848 96.42797363 298.02887695 96.35594727 297.30322266 96.28173828 C281.12135789 94.74623287 264.67369156 95.32486342 248.4375 95.5 C247.00083984 95.51087646 247.00083984 95.51087646 245.53515625 95.52197266 C206.56714794 95.98179515 166.92092955 104.92731367 130.86035156 119.27148438 C118.05208329 124.33044874 108.33721273 127.31486317 95.10058594 121.78637695 C90.43506929 119.53274593 86.24913023 116.63522888 82 113.6875 C80.15160656 112.42885752 78.3026543 111.17103528 76.453125 109.9140625 C75.58236328 109.31883789 74.71160156 108.72361328 73.81445312 108.11035156 C70.994294 106.19973431 68.13759646 104.36931036 65.25 102.5625 C61.20248849 100.01546784 57.2938551 97.31640691 53.390625 94.5546875 C47.3194558 90.33056713 41.13268594 86.27550911 34.97167969 82.18408203 C29.66353224 78.65656747 24.36258708 75.11822703 19.06103516 71.58081055 C15.13374473 68.96104263 11.20509359 66.34361501 7.265625 63.7421875 C6.01017843 62.91181842 4.75496024 62.0811039 3.5 61.25 C2.90670898 60.8571582 2.31341797 60.46431641 1.70214844 60.05957031 C-3.17721328 56.80576241 -7.94461952 53.40328163 -12.64624023 49.89746094 C-15.57612991 47.75313759 -18.51948365 45.95554365 -21.76977539 44.36083984 C-22.48235001 44.00968109 -23.19492462 43.65852234 -23.92909241 43.29672241 C-24.46811691 43.03380402 -25.00714142 42.77088562 -25.5625 42.5 Z "/>
  </g>
  
  <path class="adaptive-path" d="M0 0 C9.24821758 7.18052666 16.19232897 16.88302169 18.609375 28.3671875 C18.86074219 29.51960938 19.11210937 30.67203125 19.37109375 31.859375 C20.4110062 38.71837203 20.00751328 44.66766707 18.296875 51.3671875 C18.1208374 52.06118652 17.9447998 52.75518555 17.76342773 53.47021484 C16.12698483 59.47818833 13.62442886 64.46661311 9.921875 69.4921875 C9.21611328 70.45125 9.21611328 70.45125 8.49609375 71.4296875 C7.171875 73.1171875 7.171875 73.1171875 4.921875 75.4921875 C4.261875 75.4921875 3.601875 75.4921875 2.921875 75.4921875 C2.921875 76.1521875 2.921875 76.8121875 2.921875 77.4921875 C-9.06308941 86.46662031 -21.13096072 90.1967315 -36.1171875 88.05859375 C-43.86070102 86.4478629 -49.72595024 83.11665349 -56.078125 78.4921875 C-57.686875 77.3475 -57.686875 77.3475 -59.328125 76.1796875 C-69.06279923 66.66625587 -74.30793661 55.16047991 -75.07080078 41.58935547 C-75.103498 32.22705076 -73.0338079 22.45131457 -68.078125 14.4921875 C-67.500625 13.5021875 -66.923125 12.5121875 -66.328125 11.4921875 C-50.22631975 -9.97688617 -22.22922084 -15.84423187 0 0 Z " transform="translate(224.078125,290.5078125)"/>
  
  <path class="adaptive-path" d="M0 0 C10.61495789 7.99992774 17.8121854 18.28543334 20.1875 31.5 C21.7702106 46.6273813 18.49600796 58.56220814 10.08984375 71.140625 C9.62707031 71.67171875 9.16429687 72.2028125 8.6875 72.75 C8.0275 72.75 7.3675 72.75 6.6875 72.75 C6.6875 73.41 6.6875 74.07 6.6875 74.75 C-3.3591471 83.99929415 -13.15442815 88.1108324 -26.6875 88.0625 C-27.58210938 88.07861328 -28.47671875 88.09472656 -29.3984375 88.11132812 C-41.48832792 88.12011438 -50.0741121 83.25768216 -59.3125 75.75 C-64.72808952 70.26743322 -68.21676151 63.7530938 -71.3125 56.75 C-71.65708252 55.98671387 -72.00166504 55.22342773 -72.35668945 54.43701172 C-74.01588621 49.77261339 -73.68149671 45.02968545 -73.6875 40.125 C-73.71199219 39.09503906 -73.73648437 38.06507813 -73.76171875 37.00390625 C-73.80592946 25.28806692 -69.99353167 15.58746953 -62.3125 6.75 C-44.71527845 -10.65293046 -20.72693786 -13.51345949 0 0 Z " transform="translate(510.3125,290.25)"/>
  
  <path class="adaptive-path" d="M0 0 C3.438839 2.97413103 6.75728163 6.4467894 7.203125 11.13671875 C7.22632813 12.39935547 7.22632813 12.39935547 7.25 13.6875 C7.27578125 14.51636719 7.3015625 15.34523438 7.328125 16.19921875 C6.13863179 26.35239294 -2.10554944 33.98109631 -9.6640625 40.1875 C-23.11598352 49.84956092 -38.39333311 54.65993802 -55.0625 52.375 C-69.55597016 49.49537632 -82.19119772 41.94773903 -92 31 C-92.763125 30.154375 -93.52625 29.30875 -94.3125 28.4375 C-98.08638061 22.98633911 -100.18142574 17.5952118 -99 11 C-96.92548152 5.7658303 -93.55155429 1.46045703 -88.65234375 -1.34375 C-62.22092613 -12.60087175 -25.57365708 -14.63287398 0 0 Z " transform="translate(386,387)"/>
  
  <path class="accent-path" d="M0 0 C1.45606519 4.52092968 0.27032841 7.51648796 -1 12 C-3 8.25 -3 8.25 -3 6 C-2.34 6 -1.68 6 -1 6 C-0.67 4.02 -0.34 2.04 0 0 Z" transform="translate(671,386)"/>
  
  <path class="accent-path" d="M0 0 C0.66 0.33 1.32 0.66 2 1 C0.25 6.75 0.25 6.75 -2 9 C-1.125 2.25 -1.125 2.25 0 0 Z" transform="translate(649,448)"/>
</svg>